{"title":"The.Universe.S07E07.When.Space.Changed.History","uid":7343365,"size":718770654,"categoryP":"video","categoryS":"tv_shows","magnet":"?xt=urn:btih:dee91841cfaeae15b563fc67b300c1adabdf5827&amp;dn=The.Universe.S07E07.When.Space.Changed.History&amp;tr=udp%3A%2F%2Ftracker.openbittorrent.com%3A80&amp;tr=udp%3A%2F%2Fopen.demonii.com%3A1337&amp;tr=udp%3A%2F%2Ftracker.coppersurfer.tk%3A6969&amp;tr=udp%3A%2F%2Fexodus.desync.com%3A6969","seeders":0,"leechers":0,"uploader":"movieboy_5280","files":-1,"time":1339288691,"description":"The audio was badly out of sync.\nNow it is not.\n\n\nSUMMARY\n\nExamining how objects from space may have altered the course of Earth's history.\n\nDETAILS\n\nGeneral\n\nComplete name                            : \n\nThe.Universe.S07E07.When.Space.Changed.History.avi\nFormat                                   : AVI\nFormat/Info                              : Audio Video Interleave\nFile size                                : 685 MiB\nDuration                                 : 43mn 30s\nOverall bit rate                         : 2 203 Kbps\n\nVideo\n\nID                                       : 0\nFormat                                   : MPEG-4 Visual\nFormat profile                           : Simple@L3\nFormat settings, BVOP                    : No\nFormat settings, QPel                    : No\nFormat settings, GMC                     : No warppoints\nFormat settings, Matrix                  : Default (H.263)\nCodec ID                                 : XVID\nCodec ID/Hint                            : XviD\nDuration                                 : 43mn 30s\nBit rate                                 : 2 065 Kbps\nWidth                                    : 1 920 pixels\nHeight                                   : 1 080 pixels\nDisplay aspect ratio                     : 16:9\nFrame rate                               : 23.976 fps\nOriginal frame rate                      : 23.000 fps\nColor space                              : YUV\nChroma subsampling                       : 4:2:0\nBit depth                                : 8 bits\nScan type                                : Progressive\nCompression mode                         : Lossy\nBits/(Pixel*Frame)                       : 0.042\nStream size                              : 643 MiB (94%)\nWriting library                          : XviD 1.2.1 (UTC 2008-12-04)\n\nAudio\n\nID                                       : 1\nFormat                                   : MPEG Audio\nFormat version                           : Version 1\nFormat profile                           : Layer 3\nCodec ID                                 : 55\nCodec ID/Hint                            : MP3\nDuration                                 : 43mn 30s\nSource duration                          : 43mn 30s\nBit rate mode                            : Constant\nBit rate                                 : 128 Kbps\nChannel(s)                               : 2 channels\nSampling rate                            : 44.1 KHz\nCompression mode                         : Lossy\nStream size                              : 39.8 MiB (6%)\nAlignment                                : Split accross interleaves\nInterleave, duration                     : 42 ms (1.00 video frame)\nWriting library                          : LAMELAME_MAJOR_VERSI","torrent":{"xt":"urn:btih:dee91841cfaeae15b563fc67b300c1adabdf5827","amp;dn":"The.Universe.S07E07.When.Space.Changed.History","amp;tr":["udp%3A%2F%2Ftracker.openbittorrent.com%3A80","udp%3A%2F%2Fopen.demonii.com%3A1337","udp%3A%2F%2Ftracker.coppersurfer.tk%3A6969","udp%3A%2F%2Fexodus.desync.com%3A6969"],"infoHash":"dee91841cfaeae15b563fc67b300c1adabdf5827","infoHashBuffer":{"type":"Buffer","data":[222,233,24,65,207,174,174,21,181,99,252,103,179,0,193,173,171,223,88,39]},"announce":[],"urlList":[]}}